<svg width="40" height="42" viewBox="0 0 40 42" fill="none" xmlns="http://www.w3.org/2000/svg">
<mask id="mask0" mask-type="alpha" maskUnits="userSpaceOnUse" x="1" y="6" width="38" height="36">
<path d="M20 42C30.0415 42 38.1818 33.9411 38.1818 24C38.1818 14.0589 30.0415 6 20 6C9.95845 6 1.81818 14.0589 1.81818 24C1.81818 33.9411 9.95845 42 20 42Z" fill="white"/>
</mask>
<g mask="url(#mask0)">
<path d="M20 42C30.0415 42 38.1818 33.9411 38.1818 24C38.1818 14.0589 30.0415 6 20 6C9.95845 6 1.81818 14.0589 1.81818 24C1.81818 33.9411 9.95845 42 20 42Z" fill="#E6E6E6"/>
<path d="M38.1818 6H1.81818V42H38.1818V6Z" fill="#65C9FF"/>
</g>
<mask id="mask1" mask-type="alpha" maskUnits="userSpaceOnUse" x="0" y="0" width="40" height="42">
<path d="M1.81818 24C1.81818 33.9411 9.95846 42 20 42C30.0415 42 38.1818 33.9411 38.1818 24H40V0H0V24H1.81818Z" fill="white"/>
</mask>
<g mask="url(#mask1)">
<mask id="mask2" mask-type="alpha" maskUnits="userSpaceOnUse" x="4" y="5" width="32" height="37">
<path d="M23.6363 27.0916V29.85H24.2424C30.2673 29.85 35.1515 34.6853 35.1515 40.65V42H4.84845V40.65C4.84845 34.6853 9.73262 29.85 15.7575 29.85H16.3636V27.0916C13.7519 25.8633 11.8745 23.353 11.5613 20.3822C10.6788 20.2587 9.99996 19.5078 9.99996 18.6V16.5C9.99996 15.6081 10.6552 14.8677 11.5151 14.7249V13.8C11.5151 9.1608 15.3139 5.39999 20 5.39999C24.686 5.39999 28.4848 9.1608 28.4848 13.8V14.7249C29.3447 14.8677 30 15.6081 30 16.5V18.6C30 19.5078 29.3211 20.2587 28.4386 20.3822C28.1254 23.353 26.248 25.8633 23.6363 27.0916Z" fill="white"/>
</mask>
<g mask="url(#mask2)">
<path d="M23.6363 27.0916V29.85H24.2424C30.2673 29.85 35.1515 34.6853 35.1515 40.65V42H4.84845V40.65C4.84845 34.6853 9.73262 29.85 15.7575 29.85H16.3636V27.0916C13.7519 25.8633 11.8745 23.353 11.5613 20.3822C10.6788 20.2587 9.99996 19.5078 9.99996 18.6V16.5C9.99996 15.6081 10.6552 14.8677 11.5151 14.7249V13.8C11.5151 9.1608 15.3139 5.39999 20 5.39999C24.686 5.39999 28.4848 9.1608 28.4848 13.8V14.7249C29.3447 14.8677 30 15.6081 30 16.5V18.6C30 19.5078 29.3211 20.2587 28.4386 20.3822C28.1254 23.353 26.248 25.8633 23.6363 27.0916Z" fill="#D0C6AC"/>
<path d="M40 5.39999H0V42H40V5.39999Z" fill="#EDB98A"/>
<path fill-rule="evenodd" clip-rule="evenodd" d="M28.4848 17.25V20.7C28.4848 25.3392 24.686 29.1 19.9999 29.1C15.3139 29.1 11.5151 25.3392 11.5151 20.7V17.25V19.5C11.5151 24.1392 15.3139 27.9 19.9999 27.9C24.686 27.9 28.4848 24.1392 28.4848 19.5V17.25Z" fill="black" fill-opacity="0.1"/>
</g>
<mask id="mask3" mask-type="alpha" maskUnits="userSpaceOnUse" x="4" y="29" width="32" height="13">
<path fill-rule="evenodd" clip-rule="evenodd" d="M25.1455 29.8942C30.7479 30.3487 35.1515 34.9941 35.1515 40.6577V42H4.84845V40.6577C4.84845 34.9429 9.33208 30.2647 15.0068 29.8829C15.0023 29.9389 15 29.9954 15 30.0521C15 31.8316 17.2725 33.2741 20.0757 33.2741C22.879 33.2741 25.1515 31.8316 25.1515 30.0521C25.1515 29.9992 25.1495 29.9465 25.1455 29.8942Z" fill="white"/>
</mask>
<g mask="url(#mask3)">
<path fill-rule="evenodd" clip-rule="evenodd" d="M25.1455 29.8942C30.7479 30.3487 35.1515 34.9941 35.1515 40.6577V42H4.84845V40.6577C4.84845 34.9429 9.33208 30.2647 15.0068 29.8829C15.0023 29.9389 15 29.9954 15 30.0521C15 31.8316 17.2725 33.2741 20.0757 33.2741C22.879 33.2741 25.1515 31.8316 25.1515 30.0521C25.1515 29.9992 25.1495 29.9465 25.1455 29.8942Z" fill="#E6E6E6"/>
<path d="M40 25.5H0V42H40V25.5Z" fill="#262E33"/>
<g opacity="0.6">
<g opacity="0.6">
<path opacity="0.6" d="M20.0758 34.3142C23.3924 34.3142 26.0811 32.5067 26.0811 30.2771C26.0811 28.0475 23.3924 26.2401 20.0758 26.2401C16.7591 26.2401 14.0704 28.0475 14.0704 30.2771C14.0704 32.5067 16.7591 34.3142 20.0758 34.3142Z" fill="black" fill-opacity="0.16"/>
</g>
</g>
</g>
<path fill-rule="evenodd" clip-rule="evenodd" d="M15.2704 29.8683C9.47153 30.1206 4.84845 34.8547 4.84845 40.6577H4.84845V42H15.3578C14.8425 40.188 14.5454 38.0563 14.5454 35.775C14.5454 33.6259 14.8091 31.6096 15.2704 29.8683ZM24.7936 42H35.1515V40.6577C35.1515 34.906 30.6098 30.2044 24.8831 29.8761C25.3432 31.6156 25.606 33.6291 25.606 35.775C25.606 38.0563 25.3089 40.188 24.7936 42Z" fill="#3A4C5A"/>
<path fill-rule="evenodd" clip-rule="evenodd" d="M27.4242 38.4L28.872 37.325C29.0907 37.1626 29.392 37.1652 29.6078 37.3313L30.606 38.1L27.4242 38.4Z" fill="#E6E6E6"/>
<path fill-rule="evenodd" clip-rule="evenodd" d="M15.303 29.7C14.6969 32.6 14.9494 36.7 16.0605 42H13.6363L11.5151 36.6L12.4242 35.25L11.5151 34.35L14.3939 29.85C14.7011 29.7554 15.0041 29.7054 15.303 29.7Z" fill="#2F4351"/>
<path fill-rule="evenodd" clip-rule="evenodd" d="M24.6969 29.7C25.303 32.6 25.0505 36.7 23.9394 42H26.3636L28.4848 36.6L27.5757 35.25L28.4848 34.35L25.606 29.85C25.2988 29.7554 24.9958 29.7054 24.6969 29.7Z" fill="#2F4351"/>
<path fill-rule="evenodd" clip-rule="evenodd" d="M17.8788 22.35C17.8788 23.5098 18.8285 24.45 20 24.45C21.1715 24.45 22.1212 23.5098 22.1212 22.35" fill="black" fill-opacity="0.7"/>
<path fill-rule="evenodd" clip-rule="evenodd" d="M18.1818 19.5C18.1818 20.1627 18.9959 20.7 20 20.7C21.0042 20.7 21.8182 20.1627 21.8182 19.5" fill="black" fill-opacity="0.16"/>
<path d="M16.0606 17.7C16.5627 17.7 16.9697 17.2971 16.9697 16.8C16.9697 16.3029 16.5627 15.9 16.0606 15.9C15.5586 15.9 15.1516 16.3029 15.1516 16.8C15.1516 17.2971 15.5586 17.7 16.0606 17.7Z" fill="black" fill-opacity="0.6"/>
<path d="M23.9394 17.7C24.4415 17.7 24.8485 17.2971 24.8485 16.8C24.8485 16.3029 24.4415 15.9 23.9394 15.9C23.4374 15.9 23.0303 16.3029 23.0303 16.8C23.0303 17.2971 23.4374 17.7 23.9394 17.7Z" fill="black" fill-opacity="0.6"/>
<path d="M13.8834 14.8738C14.4765 14.0475 16.1027 13.5841 17.5035 13.9247C17.666 13.9642 17.8301 13.8658 17.87 13.7049C17.91 13.544 17.8106 13.3815 17.648 13.342C16.0213 12.9465 14.1382 13.483 13.3894 14.5262C13.2924 14.6613 13.3244 14.8486 13.4608 14.9445C13.5972 15.0405 13.7864 15.0088 13.8834 14.8738Z" fill="black" fill-opacity="0.6"/>
<path d="M26.1167 14.8738C25.5235 14.0475 23.8973 13.5841 22.4966 13.9247C22.334 13.9642 22.1699 13.8658 22.13 13.7049C22.0901 13.544 22.1895 13.3815 22.352 13.342C23.9788 12.9465 25.8619 13.483 26.6107 14.5262C26.7076 14.6613 26.6757 14.8486 26.5392 14.9445C26.4028 15.0405 26.2136 15.0088 26.1167 14.8738Z" fill="black" fill-opacity="0.6"/>
<mask id="mask4" mask-type="alpha" maskUnits="userSpaceOnUse" x="0" y="0" width="40" height="42">
<path d="M40 0H0V42H40V0Z" fill="white"/>
</mask>
<g mask="url(#mask4)">
<mask id="mask5" mask-type="alpha" maskUnits="userSpaceOnUse" x="8" y="2" width="24" height="40">
<path fill-rule="evenodd" clip-rule="evenodd" d="M29.0161 14.9002C29.6005 15.1996 30 15.8036 30 16.5V18.45C30 19.3528 29.3286 20.1003 28.4532 20.2301C28.1891 23.2672 26.2925 25.8424 23.6363 27.0916V29.85H24.2424C26.8925 29.85 29.322 30.7855 31.2121 32.3412V13.8C31.2121 10.7348 29.9571 7.9598 27.9281 5.9511C25.8991 3.94239 23.0961 2.69998 20 2.69998C13.8077 2.69998 8.78784 7.66962 8.78784 13.8V41.3574C10.8438 41.0663 12.4242 39.3159 12.4242 37.2V30.3634C13.4749 30.03 14.595 29.85 15.7575 29.85H16.3636V27.0916C14.6625 26.2916 13.2729 24.9477 12.4242 23.2869V13.9899C13.8101 13.5436 15.2693 12.9025 16.7184 12.0743C19.0522 10.7403 20.9744 9.14112 22.2827 7.55954C22.5501 8.33925 22.9053 9.12013 23.35 9.88271C24.6784 12.1606 26.5491 13.835 28.4848 14.6875V14.7249C28.5455 14.7349 28.6051 14.748 28.6636 14.7639C28.781 14.8124 28.8985 14.8579 29.0161 14.9002Z" fill="white"/>
</mask>
<g mask="url(#mask5)">
<path fill-rule="evenodd" clip-rule="evenodd" d="M29.0161 14.9002C29.6005 15.1996 30 15.8036 30 16.5V18.45C30 19.3528 29.3286 20.1003 28.4532 20.2301C28.1891 23.2672 26.2925 25.8424 23.6363 27.0916V29.85H24.2424C26.8925 29.85 29.322 30.7855 31.2121 32.3412V13.8C31.2121 10.7348 29.9571 7.9598 27.9281 5.9511C25.8991 3.94239 23.0961 2.69998 20 2.69998C13.8077 2.69998 8.78784 7.66962 8.78784 13.8V41.3574C10.8438 41.0663 12.4242 39.3159 12.4242 37.2V30.3634C13.4749 30.03 14.595 29.85 15.7575 29.85H16.3636V27.0916C14.6625 26.2916 13.2729 24.9477 12.4242 23.2869V13.9899C13.8101 13.5436 15.2693 12.9025 16.7184 12.0743C19.0522 10.7403 20.9744 9.14112 22.2827 7.55954C22.5501 8.33925 22.9053 9.12013 23.35 9.88271C24.6784 12.1606 26.5491 13.835 28.4848 14.6875V14.7249C28.5455 14.7349 28.6051 14.748 28.6636 14.7639C28.781 14.8124 28.8985 14.8579 29.0161 14.9002Z" fill="#944F23"/>
<path d="M48.7878 2.69998H8.78784V44.7H48.7878V2.69998Z" fill="#4A312C"/>
</g>
<path fill-rule="evenodd" clip-rule="evenodd" d="M29.0161 14.9002C29.7537 15.1661 30.4944 15.3108 31.2121 15.3222V13.8C31.2121 10.7348 29.9571 7.95979 27.9281 5.95108C29.9571 7.95979 31.2121 10.7348 31.2121 13.8V32.3412C29.3219 30.7855 26.8925 29.85 24.2424 29.85H23.6363V27.0916C26.2925 25.8424 28.1891 23.2672 28.4532 20.23C29.3286 20.1003 30 19.3528 30 18.45V16.5C30 15.8036 29.6005 15.1996 29.0161 14.9002ZM28.6636 14.7638C28.6051 14.748 28.5455 14.7349 28.4848 14.7249V14.6875C28.5443 14.7137 28.6039 14.7392 28.6636 14.7638ZM12.4242 23.2868C13.2729 24.9477 14.6625 26.2916 16.3636 27.0916V29.85H15.7575C14.595 29.85 13.4749 30.03 12.4242 30.3634V23.2868Z" fill="black" fill-opacity="0.24"/>
</g>
</g>
</svg>
