<svg width="20" height="21" viewBox="0 0 20 21" fill="none" xmlns="http://www.w3.org/2000/svg">
<path fill-rule="evenodd" clip-rule="evenodd" d="M0 2.48415C0 1.1129 1.1129 0 2.48415 0C3.85539 0 4.96829 1.1129 4.96829 2.48415C4.96829 3.85539 3.85539 4.96829 2.48415 4.96829C1.1129 4.96829 0 3.85539 0 2.48415ZM7.45244 2.48415C7.45244 1.1129 8.56534 0 9.93658 0C11.3078 0 12.4207 1.1129 12.4207 2.48415C12.4207 3.85539 11.3078 4.96829 9.93658 4.96829C8.56534 4.96829 7.45244 3.85539 7.45244 2.48415ZM14.9049 2.48415C14.9049 1.1129 16.0178 0 17.389 0C18.7603 0 19.8732 1.1129 19.8732 2.48415C19.8732 3.85539 18.7603 4.96829 17.389 4.96829C16.0178 4.96829 14.9049 3.85539 14.9049 2.48415ZM2.48415 7.94931C1.1129 7.94931 0 9.06221 0 10.4335C0 11.8047 1.1129 12.9176 2.48415 12.9176C3.85539 12.9176 4.96829 11.8047 4.96829 10.4335C4.96829 9.06221 3.85539 7.94931 2.48415 7.94931ZM9.93658 7.94931C8.56534 7.94931 7.45244 9.06221 7.45244 10.4335C7.45244 11.8047 8.56534 12.9176 9.93658 12.9176C11.3078 12.9176 12.4207 11.8047 12.4207 10.4335C12.4207 9.06221 11.3078 7.94931 9.93658 7.94931ZM17.389 7.94931C16.0178 7.94931 14.9049 9.06221 14.9049 10.4335C14.9049 11.8047 16.0178 12.9176 17.389 12.9176C18.7603 12.9176 19.8732 11.8047 19.8732 10.4335C19.8732 9.06221 18.7603 7.94931 17.389 7.94931ZM2.48415 15.8985C1.1129 15.8985 0 17.0114 0 18.3827C0 19.7539 1.1129 20.8668 2.48415 20.8668C3.85539 20.8668 4.96829 19.7539 4.96829 18.3827C4.96829 17.0114 3.85539 15.8985 2.48415 15.8985ZM9.93658 15.8985C8.56534 15.8985 7.45244 17.0114 7.45244 18.3827C7.45244 19.7539 8.56534 20.8668 9.93658 20.8668C11.3078 20.8668 12.4207 19.7539 12.4207 18.3827C12.4207 17.0114 11.3078 15.8985 9.93658 15.8985ZM17.389 15.8985C16.0178 15.8985 14.9049 17.0114 14.9049 18.3827C14.9049 19.7539 16.0178 20.8668 17.389 20.8668C18.7603 20.8668 19.8732 19.7539 19.8732 18.3827C19.8732 17.0114 18.7603 15.8985 17.389 15.8985Z" fill="#CACACA"/>
</svg>
